<?xml version="1.0" encoding="UTF-8" standalone="no" ?>
<!DOCTYPE svg PUBLIC "-//W3C//DTD SVG 1.1//EN" "http://www.w3.org/Graphics/SVG/1.1/DTD/svg11.dtd">
<svg xmlns="http://www.w3.org/2000/svg" xmlns:xlink="http://www.w3.org/1999/xlink" version="1.1" width="30" height="16" viewBox="0 0 540 340" xml:space="preserve">
<desc>Created with Fabric.js 5.2.4</desc>
<defs>
</defs>
<g transform="matrix(1 0 0 1 270 170)" id="dcc369de-def3-4d60-a67f-2b0d6df9af42"  >
<rect style="stroke: none; stroke-width: 1; stroke-dasharray: none; stroke-linecap: butt; stroke-dashoffset: 0; stroke-linejoin: miter; stroke-miterlimit: 4; fill: rgb(255,255,255); fill-rule: nonzero; opacity: 1;" vector-effect="non-scaling-stroke"  x="-270" y="-170" rx="0" ry="0" width="540" height="340" />
</g>
<g transform="matrix(Infinity NaN NaN Infinity 0 0)" id="2eded36c-7018-4782-9b55-9156428046c2"  >
</g>
<g transform="matrix(0.79 0 0 0.8 269.4 170)"  >
<g style="" vector-effect="non-scaling-stroke"   >
		<g transform="matrix(0.13 0 0 -0.13 -257.8 -99.83)"  >
<path style="stroke: none; stroke-width: 1; stroke-dasharray: none; stroke-linecap: butt; stroke-dashoffset: 0; stroke-linejoin: miter; stroke-miterlimit: 4; fill: rgb(15,36,54); fill-rule: nonzero; opacity: 1;" vector-effect="non-scaling-stroke"  transform=" translate(-732.16, -2465.19)" d="M 610 3164 C 428 3130 308 3064 259 2968 C 225 2901 219 2808 222 2413 L 225 2035 L 251 1980 C 284 1910 339 1856 414 1818 C 579 1735 788 1748 885 1848 C 902 1865 918 1880 922 1880 C 925 1880 936 1860 946 1835 L 963 1790 L 1101 1790 L 1240 1790 L 1240 2150 L 1240 2510 L 985 2510 L 730 2510 L 730 2410 L 730 2310 L 777 2310 L 823 2310 L 817 2178 C 812 2070 808 2042 792 2021 C 766 1986 710 1980 681 2009 C 660 2030 660 2039 660 2463 C 660 2945 659 2940 724 2940 C 789 2940 795 2927 798 2776 L 802 2640 L 1022 2640 L 1243 2640 L 1237 2753 C 1229 2907 1211 2960 1147 3024 C 1090 3080 1017 3119 925 3144 C 866 3160 659 3173 610 3164 z" stroke-linecap="round" />
</g>
		<g transform="matrix(0.13 0 0 -0.13 -90.89 -99.81)"  >
<path style="stroke: none; stroke-width: 1; stroke-dasharray: none; stroke-linecap: butt; stroke-dashoffset: 0; stroke-linejoin: miter; stroke-miterlimit: 4; fill: rgb(15,36,54); fill-rule: nonzero; opacity: 1;" vector-effect="non-scaling-stroke"  transform=" translate(-1984, -2465)" d="M 1655 3128 C 1653 3121 1604 2829 1545 2480 C 1487 2131 1437 1833 1434 1818 L 1428 1790 L 1653 1790 L 1878 1790 L 1883 1823 C 1886 1840 1892 1887 1895 1925 C 1905 2036 1900 2030 1991 2030 C 2034 2030 2070 2029 2071 2028 C 2071 2026 2077 1973 2083 1910 L 2095 1795 L 2318 1792 C 2440 1791 2540 1793 2540 1798 C 2540 1803 2484 2104 2415 2467 C 2346 2830 2290 3130 2290 3134 C 2290 3137 2148 3140 1975 3140 C 1731 3140 1658 3137 1655 3128 z M 2009 2695 C 2016 2629 2030 2512 2041 2435 C 2051 2358 2060 2290 2060 2283 C 2060 2273 2038 2270 1979 2270 L 1899 2270 L 1905 2318 C 1912 2366 1951 2628 1972 2758 C 1978 2798 1987 2827 1990 2823 C 1994 2818 2003 2761 2009 2695 z" stroke-linecap="round" />
</g>
		<g transform="matrix(0.13 0 0 -0.13 100.58 -99.81)"  >
<path style="stroke: none; stroke-width: 1; stroke-dasharray: none; stroke-linecap: butt; stroke-dashoffset: 0; stroke-linejoin: miter; stroke-miterlimit: 4; fill: rgb(15,36,54); fill-rule: nonzero; opacity: 1;" vector-effect="non-scaling-stroke"  transform=" translate(-3420, -2465)" d="M 2740 2465 L 2740 1790 L 2930 1790 L 3120 1790 L 3121 1963 C 3122 2057 3125 2254 3129 2399 L 3135 2663 L 3209 2239 C 3250 2006 3285 1809 3288 1803 C 3291 1793 3328 1790 3425 1790 C 3555 1790 3558 1791 3563 1813 C 3566 1825 3599 2024 3637 2255 L 3705 2675 L 3711 2490 C 3715 2388 3718 2189 3719 2048 L 3720 1790 L 3910 1790 L 4100 1790 L 4100 2465 L 4100 3140 L 3816 3140 L 3532 3140 L 3526 3113 C 3523 3097 3500 2959 3475 2806 C 3450 2652 3428 2525 3426 2523 C 3424 2521 3418 2545 3411 2577 C 3391 2681 3310 3124 3310 3132 C 3310 3137 3182 3140 3025 3140 L 2740 3140 L 2740 2465 z" stroke-linecap="round" />
</g>
		<g transform="matrix(0.13 0 0 -0.13 275.25 -99.81)"  >
<path style="stroke: none; stroke-width: 1; stroke-dasharray: none; stroke-linecap: butt; stroke-dashoffset: 0; stroke-linejoin: miter; stroke-miterlimit: 4; fill: rgb(15,36,54); fill-rule: nonzero; opacity: 1;" vector-effect="non-scaling-stroke"  transform=" translate(-4730, -2465)" d="M 4350 2465 L 4350 1790 L 4730 1790 L 5110 1790 L 5110 1925 L 5110 2060 L 4950 2060 L 4790 2060 L 4790 2210 L 4790 2360 L 4925 2360 L 5060 2360 L 5060 2490 L 5060 2620 L 4925 2620 L 4790 2620 L 4790 2745 L 4790 2870 L 4935 2870 L 5080 2870 L 5080 3005 L 5080 3140 L 4715 3140 L 4350 3140 L 4350 2465 z" stroke-linecap="round" />
</g>
		<g transform="matrix(0.13 0 0 -0.13 74.37 99.93)"  >
<path style="stroke: none; stroke-width: 1; stroke-dasharray: none; stroke-linecap: butt; stroke-dashoffset: 0; stroke-linejoin: miter; stroke-miterlimit: 4; fill: rgb(15,36,54); fill-rule: nonzero; opacity: 1;" vector-effect="non-scaling-stroke"  transform=" translate(-3223.44, -967.02)" d="M 3036 1654 C 2879 1626 2766 1547 2742 1448 C 2695 1259 2736 1087 2848 1006 C 2873 987 2959 936 3039 893 C 3299 752 3310 740 3310 612 C 3310 548 3307 536 3285 515 C 3268 497 3250 490 3222 490 C 3158 490 3148 510 3142 650 L 3137 770 L 2939 770 L 2740 770 L 2740 677 C 2740 483 2777 402 2895 338 C 2994 285 3087 265 3245 266 C 3438 266 3578 308 3660 390 C 3711 441 3725 498 3724 650 C 3723 891 3676 950 3348 1118 C 3188 1200 3164 1216 3151 1250 C 3123 1321 3132 1410 3170 1430 C 3193 1442 3240 1443 3259 1431 C 3275 1421 3289 1354 3290 1283 L 3290 1230 L 3491 1230 L 3693 1230 L 3688 1338 C 3682 1475 3660 1529 3587 1577 C 3468 1657 3233 1689 3036 1654 z" stroke-linecap="round" />
</g>
		<g transform="matrix(0.13 0 0 -0.13 234.37 99.93)"  >
<path style="stroke: none; stroke-width: 1; stroke-dasharray: none; stroke-linecap: butt; stroke-dashoffset: 0; stroke-linejoin: miter; stroke-miterlimit: 4; fill: rgb(15,36,54); fill-rule: nonzero; opacity: 1;" vector-effect="non-scaling-stroke"  transform=" translate(-4423.44, -967.02)" d="M 4236 1654 C 4079 1626 3966 1547 3942 1448 C 3895 1259 3936 1087 4048 1006 C 4073 987 4159 936 4239 893 C 4499 752 4510 740 4510 612 C 4510 548 4507 536 4485 515 C 4468 497 4450 490 4422 490 C 4358 490 4348 510 4342 650 L 4337 770 L 4139 770 L 3940 770 L 3940 677 C 3940 483 3977 402 4095 338 C 4194 285 4287 265 4445 266 C 4638 266 4778 308 4860 390 C 4911 441 4925 498 4924 650 C 4923 891 4876 950 4548 1118 C 4388 1200 4364 1216 4351 1250 C 4323 1321 4332 1410 4370 1430 C 4393 1442 4440 1443 4459 1431 C 4475 1421 4489 1354 4490 1283 L 4490 1230 L 4691 1230 L 4893 1230 L 4888 1338 C 4882 1475 4860 1529 4787 1577 C 4668 1657 4433 1689 4236 1654 z" stroke-linecap="round" />
</g>
		<g transform="matrix(0.13 0 0 -0.13 -238.84 100.06)"  >
<path style="stroke: none; stroke-width: 1; stroke-dasharray: none; stroke-linecap: butt; stroke-dashoffset: 0; stroke-linejoin: miter; stroke-miterlimit: 4; fill: rgb(15,36,54); fill-rule: nonzero; opacity: 1;" vector-effect="non-scaling-stroke"  transform=" translate(-874.35, -966)" d="M 400 966 L 400 290 L 620 290 L 840 290 L 840 560 L 840 830 L 938 830 C 1055 831 1171 850 1227 878 C 1331 932 1356 1011 1347 1265 C 1344 1347 1337 1432 1330 1453 C 1316 1501 1268 1556 1219 1581 C 1132 1625 1071 1632 728 1637 L 400 1642 L 400 966 z M 963 1379 C 979 1359 981 1341 978 1227 C 975 1106 974 1097 951 1079 C 936 1067 912 1060 884 1060 L 840 1060 L 840 1236 L 840 1413 L 892 1408 C 930 1404 949 1397 963 1379 z" stroke-linecap="round" />
</g>
		<g transform="matrix(0.13 0 0 -0.13 -86.89 100.19)"  >
<path style="stroke: none; stroke-width: 1; stroke-dasharray: none; stroke-linecap: butt; stroke-dashoffset: 0; stroke-linejoin: miter; stroke-miterlimit: 4; fill: rgb(15,36,54); fill-rule: nonzero; opacity: 1;" vector-effect="non-scaling-stroke"  transform=" translate(-2014, -965)" d="M 1685 1628 C 1683 1621 1634 1329 1575 980 C 1517 631 1467 333 1464 317 L 1458 290 L 1683 290 L 1908 290 L 1913 323 C 1916 340 1922 387 1925 425 C 1935 536 1930 530 2021 530 C 2064 530 2100 529 2101 528 C 2101 526 2107 473 2113 410 L 2125 295 L 2348 292 C 2470 291 2570 293 2570 298 C 2570 303 2514 604 2445 967 C 2376 1330 2320 1630 2320 1634 C 2320 1637 2178 1640 2005 1640 C 1761 1640 1688 1637 1685 1628 z M 2039 1195 C 2046 1129 2060 1012 2071 935 C 2081 858 2090 790 2090 783 C 2090 773 2068 770 2009 770 L 1929 770 L 1935 818 C 1942 866 1981 1128 2002 1258 C 2008 1298 2017 1327 2020 1323 C 2024 1318 2033 1261 2039 1195 z" stroke-linecap="round" />
</g>
</g>
</g>
</svg>